<svg width="1600" height="900" viewBox="0 0 1600 900" fill="none" xmlns="http://www.w3.org/2000/svg">
  <defs>
    <linearGradient id="bg" x1="0" y1="0" x2="1" y2="1">
      <stop offset="0%" stop-color="#0A0A0E"/>
      <stop offset="100%" stop-color="#13131A"/>
    </linearGradient>
    <radialGradient id="gold" cx="0" cy="0" r="1" gradientTransform="translate(800 150) rotate(90) scale(450 800)">
      <stop offset="0%" stop-color="#C8A35A" stop-opacity="0.22"/>
      <stop offset="100%" stop-color="#C8A35A" stop-opacity="0"/>
    </radialGradient>
  </defs>
  <rect width="1600" height="900" fill="url(#bg)"/>
  <rect width="1600" height="900" fill="url(#gold)"/>

  <g opacity="0.32" stroke="#C8A35A" stroke-width="1">
    <path d="M0 680 C220 620 380 740 560 640 C700 560 820 650 980 570 C1160 480 1320 620 1600 520"/>
    <path d="M0 740 C190 700 360 810 550 720 C730 640 860 760 1010 690 C1180 620 1370 740 1600 680"/>
  </g>

  <g opacity="0.18" fill="#F1F1F2">
    <circle cx="120" cy="160" r="1.5"/>
    <circle cx="300" cy="220" r="1.5"/>
    <circle cx="510" cy="130" r="1.5"/>
    <circle cx="720" cy="220" r="1.5"/>
    <circle cx="920" cy="140" r="1.5"/>
    <circle cx="1120" cy="210" r="1.5"/>
    <circle cx="1340" cy="150" r="1.5"/>
    <circle cx="1480" cy="220" r="1.5"/>
  </g>
</svg>
