<svg width="120" height="64" viewBox="0 0 120 64" fill="none" xmlns="http://www.w3.org/2000/svg">
  <defs>
    <linearGradient id="gold" x1="16" y1="12" x2="104" y2="52" gradientUnits="userSpaceOnUse">
      <stop offset="0" stop-color="#fff1bf"/>
      <stop offset="0.35" stop-color="#f3cf7a"/>
      <stop offset="0.62" stop-color="#c88f2f"/>
      <stop offset="1" stop-color="#ffe7aa"/>
    </linearGradient>
    <filter id="glow" x="0" y="0" width="120" height="64" filterUnits="userSpaceOnUse" color-interpolation-filters="sRGB">
      <feGaussianBlur stdDeviation="2.2" result="blur"/>
      <feColorMatrix in="blur" type="matrix" values="1 0 0 0 0  0 0.84 0 0 0  0 0 0.45 0 0  0 0 0 0.9 0"/>
      <feBlend mode="screen" in2="SourceGraphic"/>
    </filter>
  </defs>

  <g filter="url(#glow)">
    <path d="M16 32C16 21.5066 24.5066 13 35 13C46.2 13 51.8 25.3 58.6 32C65.4 38.7 71 51 82.2 51" stroke="url(#gold)" stroke-width="5" stroke-linecap="round"/>
    <path d="M104 32C104 21.5066 95.4934 13 85 13C73.8 13 68.2 25.3 61.4 32C54.6 38.7 49 51 37.8 51" stroke="url(#gold)" stroke-width="5" stroke-linecap="round"/>
    <path d="M16 32C16 21.5066 24.5066 13 35 13C46.2 13 51.8 25.3 58.6 32C65.4 38.7 71 51 82.2 51" stroke="#ffe6a3" stroke-opacity="0.3" stroke-width="1.7" stroke-linecap="round"/>
    <path d="M104 32C104 21.5066 95.4934 13 85 13C73.8 13 68.2 25.3 61.4 32C54.6 38.7 49 51 37.8 51" stroke="#ffe6a3" stroke-opacity="0.3" stroke-width="1.7" stroke-linecap="round"/>
  </g>
</svg>
